<svg xmlns="http://www.w3.org/2000/svg" viewBox="0 0 1024 1024" width="1024" height="1024">
  <rect x="0" y="0" width="1024" height="1024" rx="220" ry="220" fill="#22395A"/>
  <g transform="translate(204.538 604.239) scale(0.13083 -0.13083)"><path d="M1567 0H1217L1026 815Q991 959 967 1116Q943 985 928.0 916.5Q913 848 715 0H365L2 1409H301L505 499L551 279Q579 418 605.5 544.5Q632 671 805 1409H1135L1313 659Q1334 575 1384 279L1409 395L1462 625L1632 1409H1931ZM2728 212Q2995 212 3099 480L3356 383Q3273 179 3112.5 79.5Q2952 -20 2728 -20Q2388 -20 2202.5 172.5Q2017 365 2017 711Q2017 1058 2196.0 1244.0Q2375 1430 2715 1430Q2963 1430 3119.0 1330.5Q3275 1231 3338 1038L3078 967Q3045 1073 2948.5 1135.5Q2852 1198 2721 1198Q2521 1198 2417.5 1074.0Q2314 950 2314 711Q2314 468 2420.5 340.0Q2527 212 2728 212ZM3549 0V1409H4657V1181H3844V827H4596V599H3844V228H4698V0Z" fill="#FFFFFF"/></g>
</svg>